<?xml version="1.0" encoding="utf-8"?>
<svg xmlns="http://www.w3.org/2000/svg" width="40" height="40" viewBox="0 0 40 40" fill="none">
<path fill-rule="evenodd" clip-rule="evenodd" d="M25 32.9893C32.1738 32.9893 37.9893 27.1738 37.9893 20C37.9893 12.8262 32.1738 7.01067 25 7.01067C17.8262 7.01067 12.0107 12.8262 12.0107 20C12.0107 27.1738 17.8262 32.9893 25 32.9893ZM25 35C33.2843 35 40 28.2843 40 20C40 11.7157 33.2843 5 25 5C16.7157 5 10 11.7157 10 20C10 28.2843 16.7157 35 25 35Z" fill="#FFB000"/>
<path fill-rule="evenodd" clip-rule="evenodd" d="M8 6C8 5.44772 8.44772 5 9 5L25 5C25.5523 5 26 5.44771 26 6C26 6.55228 25.5523 7 25 7L9 7C8.44772 7 8 6.55228 8 6Z" fill="#FFB000"/>
<path fill-rule="evenodd" clip-rule="evenodd" d="M8 34C8 33.4477 8.44772 33 9 33L26 33C26.5523 33 27 33.4477 27 34C27 34.5523 26.5523 35 26 35L9 35C8.44772 35 8 34.5523 8 34Z" fill="#FFB000"/>
<path fill-rule="evenodd" clip-rule="evenodd" d="M1 21C1 20.4477 1.44772 20 2 20L11 20C11.5523 20 12 20.4477 12 21C12 21.5523 11.5523 22 11 22L2 22C1.44772 22 1 21.5523 1 21Z" fill="#FFB000"/>
<path fill-rule="evenodd" clip-rule="evenodd" d="M30.5179 13.0672C31.0066 13.3244 31.1943 13.9291 30.937 14.4179L24.9689 25.7574C24.8209 26.0386 24.548 26.2327 24.2339 26.2803C23.9197 26.328 23.6016 26.2234 23.3769 25.9987L19.1991 21.821C18.8086 21.4305 18.8086 20.7973 19.1991 20.4068C19.5897 20.0163 20.2228 20.0163 20.6134 20.4068L23.8312 23.6247L29.1672 13.4864C29.4244 12.9976 30.0291 12.81 30.5179 13.0672Z" fill="#FFB000"/>
</svg>