<?xml version="1.0" encoding="utf-8"?>
<svg xmlns="http://www.w3.org/2000/svg" fill="none" height="40" viewBox="0 0 40 40" width="40">
<path clip-rule="evenodd" d="M5 17C5 9.32327 11.581 4 19.5 4C25.1025 4 28.0582 6.43595 29.5517 8.99611C30.2794 10.2435 30.639 11.4821 30.818 12.4029C30.9079 12.8652 30.9534 13.2532 30.9765 13.5302C30.981 13.5835 30.9846 13.6328 30.9875 13.6778L35.8321 20.9453C36.0171 21.2229 36.0515 21.5745 35.9239 21.8827C35.7962 22.1909 35.5232 22.4151 35.1961 22.4806L31.0005 23.3198V29.5C31.0005 30.0523 30.5528 30.5 30.0005 30.5H26.0005V34.5C26.0005 35.0523 25.5528 35.5 25.0005 35.5H13.0005C12.4482 35.5 12.0005 35.0523 12.0005 34.5V28.1562C11.8335 28.0763 11.6401 27.9785 11.4264 27.8615C10.7151 27.472 9.76836 26.8635 8.81982 25.9828C6.90883 24.2084 5 21.3317 5 17ZM13.3377 26.5586C13.3379 26.5586 13.3381 26.5587 13.3384 26.5588C13.3386 26.5589 13.3389 26.559 13.3391 26.5591C13.7358 26.7019 14.0005 27.0782 14.0005 27.5V33.5H24.0005V29.5C24.0005 28.9477 24.4482 28.5 25.0005 28.5H29.0005V22.5C29.0005 22.0233 29.3369 21.6129 29.8044 21.5194L33.3397 20.8123L29.1684 14.5547C29.0595 14.3913 29.0011 14.1994 29.0005 14.0031C29.0005 14.0026 29.0005 14.0021 29.0005 14.0016C29.0005 14.0014 29.0005 14.0012 29.0005 14.001L29.0003 13.993C29.0001 13.9824 28.9997 13.9638 28.9987 13.9378C28.9966 13.8856 28.9924 13.8037 28.9834 13.6963C28.9655 13.4812 28.929 13.1661 28.8548 12.7846C28.7057 12.0179 28.409 11.0065 27.8242 10.0039C26.6925 8.06404 24.398 6 19.5 6C12.419 6 7 10.6767 7 17C7 20.6683 8.59142 23.0416 10.1807 24.5172C10.9823 25.2615 11.7857 25.778 12.387 26.1073C12.6867 26.2714 12.9337 26.3876 13.1015 26.4612C13.1853 26.498 13.249 26.524 13.2894 26.54C13.3096 26.548 13.3239 26.5534 13.332 26.5564L13.3368 26.5583C13.3371 26.5584 13.3374 26.5585 13.3377 26.5586Z" fill="#0A96A8" fill-rule="evenodd"/>
<circle cx="24" cy="17" fill="#0A96A8" r="2"/>
<circle cx="19" cy="17" fill="#0A96A8" r="2"/>
<circle cx="14" cy="17" fill="#0A96A8" r="2"/>
</svg>