<?xml version="1.0" encoding="utf-8"?>
<svg xmlns="http://www.w3.org/2000/svg" width="40" height="40" viewBox="0 0 40 40" fill="none">
<g clip-path="url(#clip0)">
<path fill-rule="evenodd" clip-rule="evenodd" d="M9.71514 33.6032C8.83339 34.8906 8.26624 36.5404 8.0289 38.2916H21.9586C21.7213 36.5404 21.1541 34.8906 20.2724 33.6032C19.1244 31.9271 17.4369 30.8297 14.9937 30.8297C12.5506 30.8297 10.8631 31.9271 9.71514 33.6032ZM23.8752 38.2916C23.3043 33.4915 20.5316 28.9282 14.9937 28.9282C9.45588 28.9282 6.68322 33.4915 6.11229 38.2916C6.037 38.9246 6 39.5618 6 40.1931H23.9875C23.9875 39.5618 23.9505 38.9246 23.8752 38.2916Z" fill="#FFB000"/>
<path fill-rule="evenodd" clip-rule="evenodd" d="M14.9928 28.6616C18.0066 28.6616 20.4498 26.2184 20.4498 23.2046C20.4498 20.1908 18.0066 17.7476 14.9928 17.7476C11.979 17.7476 9.5358 20.1908 9.5358 23.2046C9.5358 26.2184 11.979 28.6616 14.9928 28.6616ZM14.9928 30.5631C19.0568 30.5631 22.3513 27.2686 22.3513 23.2046C22.3513 19.1406 19.0568 15.8461 14.9928 15.8461C10.9288 15.8461 7.63428 19.1406 7.63428 23.2046C7.63428 27.2686 10.9288 30.5631 14.9928 30.5631Z" fill="#FFB000"/>
<path fill-rule="evenodd" clip-rule="evenodd" d="M26.0713 15.0009C29.6886 15.0009 32.621 12.0685 32.621 8.4512C32.621 4.83391 29.6886 1.90152 26.0713 1.90152C22.454 1.90152 19.5216 4.83391 19.5216 8.4512C19.5216 12.0685 22.454 15.0009 26.0713 15.0009ZM26.0713 16.9024C30.7388 16.9024 34.5225 13.1187 34.5225 8.4512C34.5225 3.78373 30.7388 0 26.0713 0C21.4038 0 17.6201 3.78373 17.6201 8.4512C17.6201 13.1187 21.4038 16.9024 26.0713 16.9024Z" fill="#FFB000"/>
<circle r="1.0564" transform="matrix(-1 0 0 1 26.0715 11.6204)" fill="#FFB000"/>
<path fill-rule="evenodd" clip-rule="evenodd" d="M26.0776 3.80298C25.5525 3.80298 25.1268 4.22865 25.1268 4.75374V8.45124C25.1268 8.97633 25.5525 9.402 26.0776 9.402C26.6027 9.402 27.0283 8.97633 27.0283 8.45124V4.75374C27.0283 4.22865 26.6027 3.80298 26.0776 3.80298Z" fill="#FFB000"/>
</g>
<defs>
<clipPath id="clip0">
<rect width="40" height="40" fill="white"/>
</clipPath>
</defs>
</svg>