<?xml version="1.0" encoding="utf-8"?>
<svg xmlns="http://www.w3.org/2000/svg" width="40" height="40" viewBox="0 0 40 40" fill="none">
<path fill-rule="evenodd" clip-rule="evenodd" d="M5.57693 31.4809C7.13252 31.4809 8.39358 30.2198 8.39358 28.6642C8.39358 27.1086 7.13252 25.8476 5.57693 25.8476C4.02135 25.8476 2.76029 27.1086 2.76029 28.6642C2.76029 30.2198 4.02135 31.4809 5.57693 31.4809ZM5.57693 33.228C8.09742 33.228 10.1407 31.1847 10.1407 28.6642C10.1407 26.1437 8.09742 24.1005 5.57693 24.1005C3.05644 24.1005 1.01318 26.1437 1.01318 28.6642C1.01318 31.1847 3.05644 33.228 5.57693 33.228Z" fill="#39A3F0"/>
<path fill-rule="evenodd" clip-rule="evenodd" d="M2.77258 35.4341C2.38966 35.9932 2.10655 36.6898 1.93595 37.4532H9.21989C9.04928 36.6898 8.76618 35.9932 8.38326 35.4341C7.76595 34.5328 6.88681 33.961 5.57792 33.961C4.26903 33.961 3.38989 34.5328 2.77258 35.4341ZM11.0016 37.4532C10.5055 34.6941 8.79319 32.2139 5.57792 32.2139C2.36265 32.2139 0.65033 34.6941 0.154267 37.4532C0.0505489 38.0301 0 38.6192 0 39.2003H11.1558C11.1558 38.6192 11.1053 38.0301 11.0016 37.4532Z" fill="#39A3F0"/>
<path fill-rule="evenodd" clip-rule="evenodd" d="M34.4207 31.4811C35.9763 31.4811 37.2373 30.22 37.2373 28.6645C37.2373 27.1089 35.9763 25.8478 34.4207 25.8478C32.8651 25.8478 31.604 27.1089 31.604 28.6645C31.604 30.22 32.8651 31.4811 34.4207 31.4811ZM34.4207 33.2282C36.9412 33.2282 38.9844 31.1849 38.9844 28.6645C38.9844 26.144 36.9412 24.1007 34.4207 24.1007C31.9002 24.1007 29.8569 26.144 29.8569 28.6645C29.8569 31.1849 31.9002 33.2282 34.4207 33.2282Z" fill="#39A3F0"/>
<path fill-rule="evenodd" clip-rule="evenodd" d="M31.6168 35.4343C31.2339 35.9934 30.9508 36.6901 30.7802 37.4535H38.0641C37.8935 36.6901 37.6104 35.9934 37.2275 35.4343C36.6102 34.533 35.731 33.9612 34.4222 33.9612C33.1133 33.9612 32.2341 34.533 31.6168 35.4343ZM39.8458 37.4535C39.3497 34.6944 37.6374 32.2141 34.4222 32.2141C31.2069 32.2141 29.4946 34.6944 28.9985 37.4535C28.8948 38.0304 28.8442 38.6194 28.8442 39.2006H40.0001C40.0001 38.6194 39.9495 38.0304 39.8458 37.4535Z" fill="#39A3F0"/>
<path fill-rule="evenodd" clip-rule="evenodd" d="M19.9939 8.38039C21.5495 8.38039 22.8106 7.11934 22.8106 5.56375C22.8106 4.00816 21.5495 2.74711 19.9939 2.74711C18.4383 2.74711 17.1773 4.00816 17.1773 5.56375C17.1773 7.11934 18.4383 8.38039 19.9939 8.38039ZM19.9939 10.1275C22.5144 10.1275 24.5577 8.08424 24.5577 5.56375C24.5577 3.04326 22.5144 1 19.9939 1C17.4734 1 15.4302 3.04326 15.4302 5.56375C15.4302 8.08424 17.4734 10.1275 19.9939 10.1275Z" fill="#39A3F0"/>
<path fill-rule="evenodd" clip-rule="evenodd" d="M17.1896 12.3335C16.8066 12.8926 16.5235 13.5892 16.3529 14.3526H23.6369C23.4663 13.5892 23.1832 12.8926 22.8003 12.3335C22.1829 11.4322 21.3038 10.8604 19.9949 10.8604C18.686 10.8604 17.8069 11.4322 17.1896 12.3335ZM25.4186 14.3526C24.9225 11.5935 23.2102 9.11328 19.9949 9.11328C16.7796 9.11328 15.0673 11.5935 14.5713 14.3526C14.4675 14.9295 14.417 15.5186 14.417 16.0998H25.5728C25.5728 15.5186 25.5223 14.9295 25.4186 14.3526Z" fill="#39A3F0"/>
<path fill-rule="evenodd" clip-rule="evenodd" d="M19.9791 23.8602C19.5353 23.2621 19.3828 22.5638 19.3828 22.0719H21.1299C21.1299 22.2562 21.1989 22.572 21.3822 22.8191C21.5347 23.0246 21.7933 23.2267 22.3219 23.2267C22.8485 23.2267 23.0934 23.0268 23.2357 22.8292C23.41 22.587 23.4767 22.2702 23.4767 22.0719H25.2238C25.2238 22.5497 25.0876 23.2471 24.6535 23.85C24.1873 24.4975 23.418 24.9738 22.3219 24.9738C21.2279 24.9738 20.4537 24.4998 19.9791 23.8602Z" fill="#39A3F0"/>
<path fill-rule="evenodd" clip-rule="evenodd" d="M14.9155 23.8502C14.4814 23.2472 14.3452 22.5499 14.3452 22.072H16.0923C16.0923 22.2703 16.159 22.5871 16.3334 22.8293C16.4757 23.0269 16.7205 23.2268 17.2471 23.2268C17.7834 23.2268 18.095 23.0165 18.289 22.7823C18.5113 22.5141 18.5856 22.2034 18.5856 22.072H20.3327C20.3327 22.6167 20.1123 23.3202 19.6342 23.8971C19.1279 24.5081 18.3335 24.9739 17.2471 24.9739C16.1511 24.9739 15.3817 24.4977 14.9155 23.8502Z" fill="#39A3F0"/>
<path fill-rule="evenodd" clip-rule="evenodd" d="M24.3636 29.252C25.1622 26.8048 25.4937 23.9223 25.4937 22.072H23.7465C23.7465 23.7713 23.4347 26.4667 22.7027 28.71C22.3358 29.8343 21.8828 30.7837 21.3571 31.4356C20.8382 32.0791 20.3187 32.3543 19.784 32.3543V34.1014C21.0242 34.1014 21.9965 33.4259 22.7171 32.5323C23.431 31.647 23.9652 30.473 24.3636 29.252Z" fill="#39A3F0"/>
<path fill-rule="evenodd" clip-rule="evenodd" d="M15.5989 29.2706C14.7396 26.8247 14.3452 23.937 14.3452 22.072H16.0923C16.0923 23.7566 16.4586 26.4469 17.2473 28.6915C17.6421 29.8151 18.1225 30.768 18.6703 31.424C19.2135 32.0745 19.7506 32.3543 20.2896 32.3543V34.1014C19.0539 34.1014 18.0696 33.4304 17.3293 32.5438C16.5936 31.6628 16.0282 30.4922 15.5989 29.2706Z" fill="#39A3F0"/>
<path d="M18.5835 19.0297H21.1274V22.0722H18.5835V19.0297Z" fill="#39A3F0"/>
<rect x="15.6968" y="28.6147" width="2.01055" height="4.05667" transform="rotate(60 15.6968 28.6147)" fill="#39A3F0"/>
<rect x="27.3501" y="30.6429" width="2.01055" height="4.05667" transform="rotate(120 27.3501 30.6429)" fill="#39A3F0"/>
</svg>